<?xml version="1.0" encoding="utf-8"?>
<!-- Generator: Adobe Illustrator 24.1.0, SVG Export Plug-In . SVG Version: 6.00 Build 0)  -->
<svg version="1.1" id="图层_1" xmlns="http://www.w3.org/2000/svg" xmlns:xlink="http://www.w3.org/1999/xlink" x="0px" y="0px"
	 viewBox="0 0 300 147.8" style="enable-background:new 0 0 300 147.8;" xml:space="preserve">
<style type="text/css">
	.st0{fill:none;}
	.st1{fill:#E8F0F8;}
	.st2{fill:#EAF0F8;}
	.st3{fill:#DFEDFB;}
	.st4{fill:url(#SVGID_1_);}
	.st5{opacity:0.6;fill:#409EFF;enable-background:new    ;}
	.st6{fill:#409EFF;}
	.st7{opacity:0.5;fill:#FFFFFF;enable-background:new    ;}
	.st8{opacity:0.4;}
	.st9{fill:#FFFFFF;}
	.st10{opacity:0.3;}
	.st11{fill:url(#SVGID_2_);}
	.st12{fill:url(#SVGID_3_);}
	.st13{fill:url(#SVGID_4_);}
	.st14{fill:url(#SVGID_5_);}
	.st15{fill:url(#SVGID_6_);}
</style>
<g>
	<rect x="57.5" y="29.3" class="st0" width="6.5" height="15.1"/>
	<rect x="70.4" y="29.3" class="st0" width="6.5" height="15.1"/>
	<rect x="70.4" y="69.1" class="st0" width="6.5" height="15.1"/>
	<rect x="70.4" y="49.7" class="st0" width="6.5" height="15.1"/>
	<rect x="83.3" y="69.1" class="st0" width="6.5" height="15.1"/>
	<rect x="253.3" y="65.9" class="st0" width="5.4" height="11.8"/>
	<rect x="83.3" y="29.3" class="st0" width="6.5" height="15.1"/>
	<rect x="83.3" y="49.7" class="st0" width="6.5" height="15.1"/>
	<rect x="241.4" y="65.9" class="st0" width="5.4" height="11.8"/>
	<rect x="57.5" y="49.7" class="st0" width="6.5" height="15.1"/>
	<rect x="230.1" y="46.5" class="st0" width="5.4" height="11.8"/>
	<rect x="230.1" y="65.9" class="st0" width="5.4" height="11.8"/>
	<rect x="253.3" y="46.5" class="st0" width="5.4" height="11.8"/>
	<rect x="57.5" y="69.1" class="st0" width="6.5" height="15.1"/>
	<rect x="241.4" y="46.5" class="st0" width="5.4" height="11.8"/>
	<path class="st1" d="M22,108.7V87.4L3.7,90.6v33.3C6.1,118.4,12.5,113.3,22,108.7z"/>
	<path class="st1" d="M50,99.1V51.9l-28,12v23.5v21.4C29.5,105.1,39,101.9,50,99.1z"/>
	<path class="st1" d="M97.3,91.1V20.7H50v31.2v47.2C63.6,95.7,79.6,92.9,97.3,91.1z M83.3,29.3h6.5v15.1h-6.5V29.3z M83.3,49.7h6.5
		v15.1h-6.5V49.7z M83.3,69.1h6.5v15.1h-6.5V69.1z M70.4,29.3h6.5v15.1h-6.5V29.3z M70.4,49.7h6.5v15.1h-6.5V49.7z M70.4,69.1h6.5
		v15.1h-6.5V69.1z M57.5,29.3H64v15.1h-6.5V29.3z M57.5,49.7H64v15.1h-6.5V49.7z M57.5,69.1H64v15.1h-6.5V69.1z"/>
	<path class="st1" d="M265.6,82.5h0.5V39h-44.1v55.8c16.9,2.6,31.7,6.2,43.6,10.4V82.5z M235.5,78.8h-5.4V66.9h5.4V78.8z
		 M235.5,59.4h-5.4V47.6h5.4V59.4z M246.8,78.8h-5.4V66.9h5.4V78.8z M246.8,59.4h-5.4V47.6h5.4V59.4z M258.6,78.8h-5.4V66.9h5.4
		V78.8z M253.3,59.4V47.6h5.4v11.8H253.3z"/>
	<path class="st2" d="M292.5,120.7V82.5h-26.4v22.9C278.6,109.9,287.7,115.1,292.5,120.7z"/>
	<path class="st2" d="M265.6,104.1c0.2,0.1,0.4,0.1,0.5,0.2V81.4h-0.5V104.1z"/>
	<path class="st3" d="M19.9,39c0,0,2.2-12.9-15.1-16.1c0,0,15.1,0,17.2-18.3c0,0,2.7,15.6,16.7,17.7C38.7,22.3,20.4,21.2,19.9,39z"
		/>
	<path class="st3" d="M236,26.1c0,0,0-12.9-12.9-12.9c0,0,14,1.1,14-12.9c0,0,0.5,9.1,13.4,13.4C250.6,13.7,235.5,12.6,236,26.1z"/>
	<rect x="0.5" y="0.2" class="st0" width="299" height="147.3"/>
	<linearGradient id="SVGID_1_" gradientUnits="userSpaceOnUse" x1="148.9245" y1="147.5953" x2="148.9245" y2="88.4407">
		<stop  offset="0" style="stop-color:#F3F7FA;stop-opacity:0"/>
		<stop  offset="0.4336" style="stop-color:#E5EFF6;stop-opacity:0.6465"/>
		<stop  offset="1" style="stop-color:#D6E7F3"/>
	</linearGradient>
	<path class="st4" d="M17.1,147.6h263.6c9.9-5.5,15.5-11.7,15.5-18.3c0-22.6-66-40.9-147.3-40.9S1.6,106.7,1.6,129.3
		C1.6,135.9,7.2,142.1,17.1,147.6z"/>
	<g>
		<path class="st5" d="M114.2,40.2l59.1-14.4c3.2,0,5.8,2.6,5.8,5.8V112c0,3.2-2.6,5.8-5.8,5.8l-59.1,14.4c-3.2,0-5.8-2.6-5.8-5.8
			V46C108.4,42.8,111,40.2,114.2,40.2z"/>
		<path class="st6" d="M131.7,33.6v2.9l4.3,2.9C136,39.4,136.9,34.1,131.7,33.6z"/>
		<path class="st6" d="M117.6,43.5l59.1-14.4c3.2,0,5.8,2.6,5.8,5.8v80.4c0,3.2-2.6,5.8-5.8,5.8l-59.1,14.4c-3.2,0-5.8-2.6-5.8-5.8
			V49.3C111.8,46.1,114.4,43.5,117.6,43.5z"/>
		<path class="st7" d="M119.3,49.6l56.2-15.9c0,0-2.2,65.6,7,72.8l-53.1,17.7c0,0-7-16.5-8.4-35.3L119.3,49.6z"/>
		<g class="st8">
			<g>
				<path class="st9" d="M127.4,92.9l11.3-3.2V78.2l-11.3,3.2V92.9z M141.6,77.4v4.3l31.2-8.7v-4.3L141.6,77.4z M141.6,89l31.2-8.7
					V76l-31.2,8.7V89z"/>
			</g>
		</g>
		<g class="st10">
			<g>
				<path class="st9" d="M126.6,75.5l11.3-3.2V60.8l-11.3,3.2C126.6,63.9,126.6,75.5,126.6,75.5z M140.8,60v4.3l31.2-8.7v-4.3
					L140.8,60z M140.8,71.5l31.2-8.7v-4.3l-31.2,8.7V71.5z"/>
			</g>
		</g>
		
			<radialGradient id="SVGID_2_" cx="-8.2534" cy="317.6831" r="4.2592" gradientTransform="matrix(1 0 0 1 102.34 -208.335)" gradientUnits="userSpaceOnUse">
			<stop  offset="0" style="stop-color:#FFFFFF"/>
			<stop  offset="1" style="stop-color:#409EFF;stop-opacity:0.8"/>
		</radialGradient>
		<path class="st11" d="M95.5,107.7c1.6,0,2.9,1.3,2.9,2.9c0,1.6-1.3,2.9-2.9,2.9c-1.6,0-2.9-1.3-2.9-2.9
			C92.7,109,94,107.7,95.5,107.7z"/>
		
			<radialGradient id="SVGID_3_" cx="87.9023" cy="276.6027" r="4.0125" gradientTransform="matrix(1 0 0 1 102.34 -208.335)" gradientUnits="userSpaceOnUse">
			<stop  offset="0" style="stop-color:#FFFFFF"/>
			<stop  offset="1" style="stop-color:#409EFF;stop-opacity:0.8"/>
		</radialGradient>
		<path class="st12" d="M191.3,66.8c1.6,0,2.9,1.3,2.9,2.9c0,1.6-1.3,2.9-2.9,2.9c-1.6,0-2.9-1.3-2.9-2.9
			C188.5,68.1,189.7,66.8,191.3,66.8z"/>
		
			<radialGradient id="SVGID_4_" cx="96.0916" cy="308.8769" r="10.0894" gradientTransform="matrix(1 0 0 1 102.34 -208.335)" gradientUnits="userSpaceOnUse">
			<stop  offset="0" style="stop-color:#FFFFFF"/>
			<stop  offset="1" style="stop-color:#409EFF;stop-opacity:0.8"/>
		</radialGradient>
		<path class="st13" d="M200.4,97.8c3.3,0,6,2.7,6,6s-2.7,6-6,6c-3.3,0-6-2.7-6-6S197.1,97.8,200.4,97.8z"/>
		
			<radialGradient id="SVGID_5_" cx="107.7022" cy="294.9301" r="5.8559" gradientTransform="matrix(1 0 0 1 102.34 -208.335)" gradientUnits="userSpaceOnUse">
			<stop  offset="0" style="stop-color:#FFFFFF"/>
			<stop  offset="1" style="stop-color:#409EFF;stop-opacity:0.8"/>
		</radialGradient>
		<path class="st14" d="M211.3,84.5c2.4,0,4.3,1.9,4.3,4.3c0,2.4-1.9,4.3-4.3,4.3c-2.4,0-4.3-1.9-4.3-4.3S208.9,84.5,211.3,84.5z"/>
		
			<linearGradient id="SVGID_6_" gradientUnits="userSpaceOnUse" x1="43.3716" y1="239.2124" x2="46.7677" y2="252.0512" gradientTransform="matrix(1 0 0 1 102.34 -208.335)">
			<stop  offset="0" style="stop-color:#FFFFFF"/>
			<stop  offset="0.1724" style="stop-color:#FFFFFF"/>
			<stop  offset="1" style="stop-color:#409EFF"/>
		</linearGradient>
		<path class="st15" d="M131.7,33.6c0,0,6.1,1.6,4.7,13.1l25.9-7.2c0,0-0.8-10.1-4.3-10.1C153.4,27.8,131.7,33.6,131.7,33.6z"/>
	</g>
</g>
</svg>
