<?xml version="1.0" encoding="UTF-8"?>
<svg width="40px" height="40px" viewBox="0 0 40 40" version="1.1" xmlns="http://www.w3.org/2000/svg" xmlns:xlink="http://www.w3.org/1999/xlink">
    <title>analysis_3</title>
    <defs>
        <polygon id="path-1" points="0 0 24.6154139 0 24.6154139 20 0 20"></polygon>
    </defs>
    <g id="analysis_3" stroke="none" stroke-width="1" fill="none" fill-rule="evenodd">
        <circle id="椭圆形备份-4" fill="#FF504B" cx="20" cy="20" r="20"></circle>
        <g id="编组" transform="translate(8.000000, 10.000000)">
            <mask id="mask-2" fill="white">
                <use xlink:href="#path-1"></use>
            </mask>
            <g id="Clip-2"></g>
            <path d="M0,8.37852688 C0,8.10157338 0.129223806,8.00926368 0.430786711,7.9907578 L5.23081757,7.9907578 C5.36729236,7.99505468 5.49917731,7.94124601 5.59358661,7.84263748 C5.68809358,7.74402895 5.73626259,7.6100444 5.72615515,7.47386257 L5.66157987,5.78155073 C5.66157987,5.33848373 6.32925655,5.20925992 6.69537032,5.52312753 L11.4923738,9.63385083 C11.5948886,9.72157067 11.6539219,9.84974467 11.6539219,9.98460813 C11.6539219,10.1195448 11.5948886,10.2477188 11.4923738,10.3353654 L6.69080488,14.4461864 C6.32459345,14.7538284 5.65691678,14.7231399 5.65691678,14.2800485 L5.65691678,12.4338302 C5.65691678,12.1569743 5.54925062,12.0646646 5.22613006,12.0646646 L0.430786711,12.0646646 C0.10766616,12.0646646 0,11.7877111 0,11.5107576 L0,8.37852688 Z M24.6154139,8.37852688 L24.6154139,11.5138094 C24.6154139,11.7907629 24.5077478,12.0677164 24.1846516,12.0677164 L19.3845963,12.0677164 C19.0615979,12.0677164 18.953834,12.1600261 18.953834,12.4369796 L18.953834,14.2831002 C18.953834,14.7261916 18.2861574,14.7630813 17.9200436,14.4492382 L13.1230645,10.3338274 C13.0205253,10.2462052 12.961492,10.1180312 12.961492,9.98307005 C12.961492,9.84813334 13.0205253,9.720057 13.1230645,9.63231274 L17.924609,5.51997812 C18.2908205,5.21231169 18.9584971,5.33543197 18.9584971,5.77849897 L18.8938486,7.47081081 C18.8824961,7.60689498 18.9294199,7.74146547 19.0230724,7.8409285 C19.1166272,7.94039152 19.2481215,7.99542089 19.3845963,7.99227147 L24.1846516,7.99227147 C24.4922936,8.01077736 24.6154139,8.10308705 24.6154139,8.38004055 L24.6154139,8.37852688 Z M10.6861227,20.0000024 C10.4092669,20.0000024 10.3169572,19.8707786 10.2984513,19.5692401 L10.2984513,17.0770005 C10.3027482,16.940428 10.248964,16.8086163 10.1503554,16.7141094 C10.0517469,16.6196024 9.91773793,16.5714578 9.7815561,16.5815652 L8.08926867,16.6462138 C7.64620167,16.6462138 7.51697787,15.9784394 7.83082106,15.6123257 L11.9415444,10.8154442 C12.0292886,10.7128318 12.157365,10.6537985 12.2923017,10.6537985 C12.4272628,10.6537985 12.5554368,10.7128318 12.643059,10.8154442 L16.755418,15.6169155 C17.06306,15.9831269 17.0323715,16.6508036 16.5892801,16.6508036 L14.7430618,16.6508036 C14.4662059,16.6508036 14.3738963,16.7584698 14.3738963,17.0815659 L14.3738963,19.5692401 C14.3738963,19.8923363 14.0969428,20.0000024 13.8199893,20.0000024 L10.6861227,20.0000024 Z M10.6861227,0 L13.8215273,0 C14.0984808,0 14.3754099,0.10766616 14.3754099,0.430786711 L14.3754099,2.92309963 C14.3754099,3.24612252 14.467744,3.35388634 14.7445755,3.35388634 L16.5908182,3.35388634 C17.0338852,3.35388634 17.0707993,4.02156302 16.7569317,4.38767679 L12.6415453,9.18465589 C12.5538987,9.28717067 12.4257247,9.34620396 12.290788,9.34620396 C12.1558269,9.34620396 12.0276529,9.28717067 11.9400063,9.18465589 L7.82767164,4.38308694 C7.52002963,4.01687551 7.64305226,3.34922325 8.08611926,3.34922325 L9.77850434,3.41387177 C9.91461292,3.42522433 10.049159,3.37830043 10.1486464,3.28464797 C10.2481095,3.19109315 10.3031388,3.05967208 10.2999894,2.92309963 L10.2999894,0.430786711 C10.3184953,0.123120283 10.410805,0 10.6877585,0 L10.6861227,0 Z" id="Fill-1" fill="#FFFFFF" mask="url(#mask-2)"></path>
        </g>
    </g>
</svg>