<?xml version="1.0" encoding="UTF-8"?>
<svg width="40px" height="40px" viewBox="0 0 40 40" version="1.1" xmlns="http://www.w3.org/2000/svg" xmlns:xlink="http://www.w3.org/1999/xlink">
    <title>analysis_5</title>
    <defs>
        <polygon id="path-1" points="0 0 18 0 18 18 0 18"></polygon>
    </defs>
    <g id="analysis_5" stroke="none" stroke-width="1" fill="none" fill-rule="evenodd">
        <circle id="椭圆形备份-6" fill="#3D91F7" cx="20" cy="20" r="20"></circle>
        <g id="编组" transform="translate(11.000000, 11.000000)">
            <mask id="mask-2" fill="white">
                <use xlink:href="#path-1"></use>
            </mask>
            <g id="Clip-2"></g>
            <path d="M4.50002637,9.89993672 L4.39466329,9.90631757 C3.94157043,9.95968465 3.60003691,10.3437484 3.60003691,10.8000316 L3.60003691,12.6000105 L4.50002637,12.6000105 C4.95630966,12.6000105 5.34026789,12.9415441 5.39371407,13.394716 L5.40001582,13.4999736 L5.40001582,17.1000105 C5.40001582,17.5969783 4.99709962,18 4.50002637,18 L0.899989453,18 C0.402916205,18 0,17.5969783 0,17.1000105 L0,13.4999736 C0,13.0029531 0.402916205,12.6000105 0.899989453,12.6000105 L1.79997891,12.6000105 L1.79997891,10.8000316 L1.80451405,10.6416179 C1.88833518,9.21439118 3.07032115,8.09987871 4.50002637,8.09998418 L8.09995781,8.09998418 L8.09995781,5.40001582 L5.40001582,5.40001582 C4.94373253,5.39991035 4.55966883,5.05848231 4.50630175,4.60528397 L4.50002637,4.50002637 L4.50002637,0.899989453 C4.50002637,0.402942572 4.90294257,0 5.40001582,0 L12.5999842,0 C13.0970574,0 13.4999736,0.402942572 13.4999736,0.899989453 L13.4999736,4.50002637 C13.4999736,4.99709962 13.0970574,5.40001582 12.5999842,5.40001582 L9.89993672,5.40001582 L9.89993672,8.09998418 L13.4999736,8.09998418 C14.9296788,8.09987871 16.1115594,9.21439118 16.1954859,10.6416179 L16.1999156,10.8000316 L16.1999156,12.6000105 L17.1000105,12.6000105 C17.5562938,12.6000105 17.9402521,12.9415441 17.9936192,13.394716 L18,13.4999736 L18,17.1000105 C18,17.5969783 17.5969783,18 17.1000105,18 L13.4999736,18 C13.0029004,18 12.5999842,17.5969783 12.5999842,17.1000105 L12.5999842,13.4999736 C12.5999842,13.0029531 13.0029004,12.6000105 13.4999736,12.6000105 L14.3999631,12.6000105 L14.3999631,10.8000316 C14.3999631,10.3437484 14.0584296,9.95968465 13.6052312,9.90631757 L13.4999736,9.89993672 L4.50002637,9.89993672 Z" id="Fill-1" fill="#FFFFFF" mask="url(#mask-2)"></path>
        </g>
    </g>
</svg>