<?xml version="1.0" encoding="UTF-8"?>
<svg width="125px" height="124px" viewBox="0 0 125 124" version="1.1" xmlns="http://www.w3.org/2000/svg" xmlns:xlink="http://www.w3.org/1999/xlink">
    <title>4</title>
    <defs>
        <linearGradient x1="55.1238057%" y1="30.1401984%" x2="55.1238057%" y2="118.564941%" id="linearGradient-1">
            <stop stop-color="#FFFFFF" offset="0%"></stop>
            <stop stop-color="#FFFFFF" stop-opacity="0.2" offset="100%"></stop>
        </linearGradient>
        <linearGradient x1="50%" y1="31.2704709%" x2="50%" y2="116.110484%" id="linearGradient-2">
            <stop stop-color="#D8E6F8" offset="0%"></stop>
            <stop stop-color="#FFFFFF" stop-opacity="0" offset="100%"></stop>
        </linearGradient>
        <filter x="-33.3%" y="-93.8%" width="166.7%" height="287.5%" filterUnits="objectBoundingBox" id="filter-3">
            <feGaussianBlur stdDeviation="5" in="SourceGraphic"></feGaussianBlur>
        </filter>
        <linearGradient x1="50%" y1="0%" x2="50%" y2="100%" id="linearGradient-4">
            <stop stop-color="#70C4FC" offset="0%"></stop>
            <stop stop-color="#3D91F7" offset="100%"></stop>
        </linearGradient>
        <polygon id="path-5" points="0 0 23 0 23 23 0 23"></polygon>
    </defs>
    <g id="4" stroke="none" stroke-width="1" fill="none" fill-rule="evenodd">
        <polygon id="路径-4备份-4" fill-opacity="0.5" fill="#FFFFFF" points="64.2727273 98.8534293 124.966216 70.3176973 60 40 -0.388839722 70.3176973"></polygon>
        <path d="M-0.388839722,70.3176973 L64.2727273,98.8534293 L64.272,123.999697 L-0.389,123.999697 L-0.388839722,70.3176973 Z" id="形状结合备份-6" fill="url(#linearGradient-1)"></path>
        <polygon id="路径-6备份-4" fill="url(#linearGradient-2)" points="124.966216 70.3176973 64.2727273 98.8534293 64 126 124.966216 126"></polygon>
        <ellipse id="椭圆形备份-13" fill="#002B9A" opacity="0.574212937" filter="url(#filter-3)" cx="58.5" cy="79" rx="22.5" ry="8"></ellipse>
        <circle id="椭圆形备份-15" fill="url(#linearGradient-4)" cx="58" cy="55" r="29"></circle>
        <g id="编组备份-2" transform="translate(47.000000, 44.000000)">
            <mask id="mask-6" fill="white">
                <use xlink:href="#path-5"></use>
            </mask>
            <g id="Clip-2"></g>
            <path d="M5.75003369,12.6499191 L5.61540309,12.6580724 C5.0364511,12.7262637 4.60004717,13.2170118 4.60004717,13.8000404 L4.60004717,16.1000135 L5.75003369,16.1000135 C6.33306234,16.1000135 6.82367564,16.5364174 6.89196798,17.1154705 L6.90002021,17.2499663 L6.90002021,21.8500135 C6.90002021,22.4850279 6.38518284,23 5.75003369,23 L1.14998652,23 C0.514837373,23 0,22.4850279 0,21.8500135 L0,17.2499663 C0,16.6148845 0.514837373,16.1000135 1.14998652,16.1000135 L2.29997305,16.1000135 L2.29997305,13.8000404 L2.30576796,13.5976229 C2.41287273,11.7739443 3.92318814,10.349845 5.75003369,10.3499798 L10.3499461,10.3499798 L10.3499461,6.90002021 L6.90002021,6.90002021 C6.31699157,6.89988545 5.8262435,6.46361628 5.75805223,5.88452952 L5.75003369,5.75003369 L5.75003369,1.14998652 C5.75003369,0.514871065 6.26487106,0 6.90002021,0 L16.0999798,0 C16.7351289,0 17.2499663,0.514871065 17.2499663,1.14998652 L17.2499663,5.75003369 C17.2499663,6.38518284 16.7351289,6.90002021 16.0999798,6.90002021 L12.6499191,6.90002021 L12.6499191,10.3499798 L17.2499663,10.3499798 C19.0768119,10.349845 20.5869925,11.7739443 20.694232,13.5976229 L20.6998922,13.8000404 L20.6998922,16.1000135 L21.8500135,16.1000135 C22.4330421,16.1000135 22.9236554,16.5364174 22.9918467,17.1154705 L23,17.2499663 L23,21.8500135 C23,22.4850279 22.4850279,23 21.8500135,23 L17.2499663,23 C16.6148172,23 16.0999798,22.4850279 16.0999798,21.8500135 L16.0999798,17.2499663 C16.0999798,16.6148845 16.6148172,16.1000135 17.2499663,16.1000135 L18.3999528,16.1000135 L18.3999528,13.8000404 C18.3999528,13.2170118 17.9635489,12.7262637 17.3844621,12.6580724 L17.2499663,12.6499191 L5.75003369,12.6499191 Z" id="Fill-1" fill="#FFFFFF" mask="url(#mask-6)"></path>
        </g>
    </g>
</svg>