<?xml version="1.0" encoding="UTF-8"?>
<svg width="40px" height="40px" viewBox="0 0 40 40" version="1.1" xmlns="http://www.w3.org/2000/svg" xmlns:xlink="http://www.w3.org/1999/xlink">
    <title>analysis_1</title>
    <defs>
        <polygon id="path-1" points="0 0 16.2293675 0 16.2293675 18.1630457 0 18.1630457"></polygon>
    </defs>
    <g id="analysis_1" stroke="none" stroke-width="1" fill="none" fill-rule="evenodd">
        <circle id="椭圆形" fill="#3D91F7" cx="20" cy="20" r="20"></circle>
        <g id="编组" transform="translate(12.000000, 9.000000)">
            <path d="M4.48465392,0 L11.7442089,0 C11.843967,0 11.8937705,0.0499243806 11.8937705,0.14968248 L11.8937705,2.6594101 C11.8937705,2.7591682 11.843967,2.80909258 11.7442089,2.80909258 L4.48465392,2.80909258 C4.38492604,2.80909258 4.33509232,2.7591682 4.33509232,2.6594101 L4.33509232,0.14968248 C4.33509232,0.0499243806 4.38492604,0 4.48465392,0" id="Fill-1" fill="#FFFFFF"></path>
            <g transform="translate(0.000000, 1.836954)">
                <mask id="mask-2" fill="white">
                    <use xlink:href="#path-1"></use>
                </mask>
                <g id="Clip-4"></g>
                <path d="M13.2208947,6.53117879 C13.2206529,6.66943789 13.108867,6.78167709 12.9706381,6.78240238 L6.40098858,6.78240238 C6.26269925,6.78167709 6.15106447,6.66943789 6.15094358,6.53117879 L6.15094358,5.19310264 C6.15094358,5.05487375 6.26269925,4.94260434 6.40098858,4.94190927 L12.9706381,4.94190927 C13.1089879,4.94260434 13.2207738,5.05475287 13.2208947,5.19310264 L13.2208947,6.53117879 Z M13.2208947,10.5073293 C13.2206529,10.6455582 13.108867,10.7575859 12.9706381,10.7582809 L6.40098858,10.7582809 C6.26269925,10.7575859 6.15106447,10.6454373 6.15094358,10.5073293 L6.15094358,9.16889052 C6.15106447,9.0307523 6.26269925,8.91860377 6.40098858,8.91790869 L12.9706381,8.91790869 C13.108867,8.91860377 13.2206529,9.03066164 13.2208947,9.16889052 L13.2208947,10.5073293 Z M13.2208947,14.4833287 C13.2206529,14.6215576 13.108867,14.7335853 12.9706381,14.7343106 L6.40098858,14.7343106 C6.26269925,14.7335853 6.15106447,14.6215576 6.15094358,14.4833287 L6.15094358,13.1454944 C6.15106447,13.0072353 6.26269925,12.8951169 6.40098858,12.8945125 L12.9706381,12.8945125 C13.108867,12.8951169 13.2206529,13.0072353 13.2208947,13.1454944 L13.2208947,14.4833287 Z M4.79394936,6.49104587 C4.79382848,6.65148687 4.66421245,6.78167709 4.50380167,6.78240238 L3.24976893,6.78240238 C3.08944881,6.78167709 2.95980256,6.65148687 2.95974212,6.49104587 L2.95974212,5.23396085 C2.96040697,5.07400337 3.08993233,4.9445989 3.24976893,4.94378294 L4.50380167,4.94378294 C4.66375915,4.9445989 4.7931334,5.07400337 4.79394936,5.23396085 L4.79394936,6.49104587 Z M4.79394936,10.4671964 C4.79322406,10.6271539 4.66375915,10.756649 4.50380167,10.7572232 L3.24976893,10.7572232 C3.08981145,10.756649 2.96031631,10.6271539 2.95974212,10.4671964 L2.95974212,9.20996028 C2.96040697,9.05012369 3.08993233,8.92062855 3.24976893,8.91990325 L4.50380167,8.91990325 C4.66375915,8.92062855 4.7931334,9.05012369 4.79394936,9.20996028 L4.79394936,10.4671964 Z M4.79394936,14.4431958 C4.7931334,14.6031533 4.66375915,14.7325276 4.50380167,14.7333737 L3.24976893,14.7333737 C3.08993233,14.7325276 2.96040697,14.6031533 2.95974212,14.4431958 L2.95974212,13.1860806 C2.96040697,13.0261231 3.08993233,12.8967489 3.24976893,12.8959329 L4.50380167,12.8959329 C4.66375915,12.8967489 4.7931334,13.0261231 4.79394936,13.1860806 L4.79394936,14.4431958 Z M15.6907312,0 L12.7895565,0 L12.7895565,1.33230402 C12.7891938,1.63003707 12.5486079,1.87143898 12.2508748,1.87298023 L3.97708737,1.87298023 C3.67935432,1.87143898 3.43876837,1.63003707 3.4383755,1.33230402 L3.4383755,0 L0.538893193,0 C0.241160143,0.00129948448 0.000362646832,0.242822275 0,0.540555324 L0,17.6223695 C0.000362646832,17.9202234 0.241160143,18.1617462 0.538893193,18.1630457 L15.6907312,18.1630457 C15.988434,18.1615045 16.2290199,17.9201026 16.2293826,17.6223695 L16.2293826,0.540555324 C16.2290199,0.242943157 15.988434,0.00142036676 15.6907312,0 L15.6907312,0 Z" id="Fill-3" fill="#FFFFFF" mask="url(#mask-2)"></path>
            </g>
        </g>
    </g>
</svg>