<?xml version="1.0" encoding="UTF-8"?>
<svg width="40px" height="40px" viewBox="0 0 40 40" version="1.1" xmlns="http://www.w3.org/2000/svg" xmlns:xlink="http://www.w3.org/1999/xlink">
    <title>analysis_4</title>
    <g id="analysis_4" stroke="none" stroke-width="1" fill="none" fill-rule="evenodd">
        <circle id="椭圆形备份-5" fill="#FD8E00" cx="20" cy="20" r="20"></circle>
        <path d="M28.4426328,12.7652558 C28.7304017,12.8663437 28.9230769,13.1426623 28.9230769,13.4530231 L28.9230769,21.8325039 C28.7044517,26.8011032 21.0398184,29.8263561 20.7143964,29.952716 C20.633691,29.9839309 20.5480105,30 20.4615385,30 C20.3755187,30 20.2892728,29.9840463 20.2086806,29.952716 C19.8826932,29.8263561 12.2173249,26.8011032 12,21.8646131 L12,13.4530231 C12,13.1426623 12.1927882,12.8663437 12.479794,12.7652558 L20.2290901,10.0392278 C20.3796176,9.98692406 20.5428092,9.98692406 20.6931953,10.0392278 L28.4426328,12.7652558 Z M16.5785343,19.0247776 C16.2400817,18.6532475 15.6851203,18.6459685 15.3412087,19.009618 C14.9946657,19.3731472 14.9878911,19.9688525 15.3269876,20.3404728 L18.9583964,24.3323455 C19.1208761,24.5112827 19.3441876,24.6130384 19.5769893,24.6153846 L19.5838759,24.6153846 C19.81441,24.6155048 20.0356219,24.5179902 20.1997533,24.344016 L27.1248743,16.9943562 C27.4680299,16.629293 27.4720891,16.0336177 27.1315649,15.6633811 C26.7938682,15.2962124 26.2394386,15.2896252 25.8935674,15.6562224 L19.5953816,22.3403344 L16.5785343,19.0247776 Z" id="Fill-1" fill="#FFFFFF"></path>
    </g>
</svg>