<?xml version="1.0" encoding="UTF-8"?>
<svg width="125px" height="124px" viewBox="0 0 125 124" version="1.1" xmlns="http://www.w3.org/2000/svg" xmlns:xlink="http://www.w3.org/1999/xlink">
    <title>1</title>
    <defs>
        <linearGradient x1="55.1238057%" y1="30.1401984%" x2="55.1238057%" y2="118.564941%" id="linearGradient-1">
            <stop stop-color="#FFFFFF" offset="0%"></stop>
            <stop stop-color="#FFFFFF" stop-opacity="0.2" offset="100%"></stop>
        </linearGradient>
        <linearGradient x1="50%" y1="31.2704709%" x2="50%" y2="116.110484%" id="linearGradient-2">
            <stop stop-color="#D8E6F8" offset="0%"></stop>
            <stop stop-color="#FFFFFF" stop-opacity="0" offset="100%"></stop>
        </linearGradient>
        <filter x="-33.3%" y="-93.8%" width="166.7%" height="287.5%" filterUnits="objectBoundingBox" id="filter-3">
            <feGaussianBlur stdDeviation="5" in="SourceGraphic"></feGaussianBlur>
        </filter>
        <linearGradient x1="50%" y1="0%" x2="50%" y2="100%" id="linearGradient-4">
            <stop stop-color="#70C4FC" offset="0%"></stop>
            <stop stop-color="#3D91F7" offset="100%"></stop>
        </linearGradient>
        <polygon id="path-5" points="0 0 20.2867093 0 20.2867093 22.7038071 0 22.7038071"></polygon>
    </defs>
    <g id="1" stroke="none" stroke-width="1" fill="none" fill-rule="evenodd">
        <polygon id="路径-4备份-4" fill-opacity="0.5" fill="#FFFFFF" points="64.2727273 97.8534293 124.966216 69.3176973 60 39 -0.388839722 69.3176973"></polygon>
        <polygon id="形状结合备份-6" fill="url(#linearGradient-1)" points="-0.388839722 123.886719 -0.388839722 69.3176973 64.2727273 97.8534293 64.2727273 123.886719"></polygon>
        <polygon id="路径-6备份-4" fill="url(#linearGradient-2)" points="124.966216 69.3176973 64.2727273 97.8534293 64 125 124.966216 125"></polygon>
        <ellipse id="椭圆形备份-15" fill="#002B9A" opacity="0.574212937" filter="url(#filter-3)" cx="58.5" cy="78" rx="22.5" ry="8"></ellipse>
        <circle id="椭圆形备份-16" fill="url(#linearGradient-4)" cx="58" cy="55" r="29"></circle>
        <g id="编组备份-2" transform="translate(48.000000, 43.000000)">
            <path d="M5.6058174,0 L14.6802611,0 C14.8049587,0 14.8672131,0.0624054757 14.8672131,0.1871031 L14.8672131,3.32426263 C14.8672131,3.44896025 14.8049587,3.51136573 14.6802611,3.51136573 L5.6058174,3.51136573 C5.48115755,3.51136573 5.4188654,3.44896025 5.4188654,3.32426263 L5.4188654,0.1871031 C5.4188654,0.0624054757 5.48115755,0 5.6058174,0" id="Fill-1" fill="#FFFFFF"></path>
            <g id="编组" transform="translate(0.000000, 2.296193)">
                <mask id="mask-6" fill="white">
                    <use xlink:href="#path-5"></use>
                </mask>
                <g id="Clip-4"></g>
                <path d="M16.5261184,8.16397349 C16.5258161,8.33679737 16.3860838,8.47709636 16.2132977,8.47800298 L8.00123572,8.47800298 C7.82837406,8.47709636 7.68883058,8.33679737 7.68867948,8.16397349 L7.68867948,6.4913783 C7.68867948,6.31859219 7.82837406,6.17825542 8.00123572,6.17738658 L16.2132977,6.17738658 C16.3862349,6.17825542 16.5259673,6.31844109 16.5261184,6.4913783 L16.5261184,8.16397349 Z M16.5261184,13.1341616 C16.5258161,13.3069478 16.3860838,13.4469823 16.2132977,13.4478512 L8.00123572,13.4478512 C7.82837406,13.4469823 7.68883058,13.3067967 7.68867948,13.1341616 L7.68867948,11.4611132 C7.68883058,11.2884404 7.82837406,11.1482547 8.00123572,11.1473859 L16.2132977,11.1473859 C16.3860838,11.1482547 16.5258161,11.288327 16.5261184,11.4611132 L16.5261184,13.1341616 Z M16.5261184,18.1041609 C16.5258161,18.276947 16.3860838,18.4169816 16.2132977,18.4178882 L8.00123572,18.4178882 C7.82837406,18.4169816 7.68883058,18.276947 7.68867948,18.1041609 L7.68867948,16.431868 C7.68883058,16.2590441 7.82837406,16.1188962 8.00123572,16.1181407 L16.2132977,16.1181407 C16.3860838,16.1188962 16.5258161,16.2590441 16.5261184,16.431868 L16.5261184,18.1041609 Z M5.9924367,8.11380734 C5.9922856,8.31435859 5.83026557,8.47709636 5.62975209,8.47800298 L4.06221116,8.47800298 C3.86181101,8.47709636 3.6997532,8.31435859 3.69967765,8.11380734 L3.69967765,6.54245106 C3.70050872,6.34250422 3.86241542,6.18074862 4.06221116,6.17972868 L5.62975209,6.17972868 C5.82969893,6.18074862 5.99141675,6.34250422 5.9924367,6.54245106 L5.9924367,8.11380734 Z M5.9924367,13.0839955 C5.99153008,13.2839423 5.82969893,13.4458113 5.62975209,13.446529 L4.06221116,13.446529 C3.86226432,13.4458113 3.70039539,13.2839423 3.69967765,13.0839955 L3.69967765,11.5124503 C3.70050872,11.3126546 3.86241542,11.1507857 4.06221116,11.1498791 L5.62975209,11.1498791 C5.82969893,11.1507857 5.99141675,11.3126546 5.9924367,11.5124503 L5.9924367,13.0839955 Z M5.9924367,18.0539948 C5.99141675,18.2539416 5.82969893,18.4156595 5.62975209,18.4167172 L4.06221116,18.4167172 C3.86241542,18.4156595 3.70050872,18.2539416 3.69967765,18.0539948 L3.69967765,16.4826007 C3.70050872,16.2826539 3.86241542,16.1209361 4.06221116,16.1199161 L5.62975209,16.1199161 C5.82969893,16.1209361 5.99141675,16.2826539 5.9924367,16.4826007 L5.9924367,18.0539948 Z M19.6134139,0 L15.9869456,0 L15.9869456,1.66538003 C15.9864923,2.03754634 15.6857599,2.33929872 15.3135936,2.34122528 L4.97135921,2.34122528 C4.5991929,2.33929872 4.29846046,2.03754634 4.29796937,1.66538003 L4.29796937,0 L0.673616491,0 C0.301450179,0.0016243556 0.00045330854,0.303527843 0,0.675694155 L0,22.0279619 C0.00045330854,22.4002793 0.301450179,22.7021828 0.673616491,22.7038071 L19.6134139,22.7038071 C19.9855425,22.7018806 20.2862749,22.4001282 20.2867282,22.0279619 L20.2867282,0.675694155 C20.2862749,0.303678946 19.9855425,0.00177545845 19.6134139,0 L19.6134139,0 Z" id="Fill-3" fill="#FFFFFF" mask="url(#mask-6)"></path>
            </g>
        </g>
    </g>
</svg>